<?xml version="1.0" standalone="no"?>
<!DOCTYPE svg PUBLIC "-//W3C//DTD SVG 20010904//EN"
 "http://www.w3.org/TR/2001/REC-SVG-20010904/DTD/svg10.dtd">
<svg version="1.0" xmlns="http://www.w3.org/2000/svg"
 width="360.000000pt" height="360.000000pt" viewBox="0 0 360.000000 360.000000"
 preserveAspectRatio="xMidYMid meet">

<g transform="translate(0.000000,360.000000) scale(0.100000,-0.100000)"
fill="#000000" stroke="none">
<path d="M1280 2525 c-135 -22 -256 -61 -385 -125 -146 -72 -267 -162 -402
-297 -56 -57 -105 -103 -108 -103 -12 0 -106 208 -148 324 -46 132 -70 160
-132 160 -44 0 -92 -44 -101 -92 -12 -64 113 -386 209 -539 15 -24 27 -47 27
-53 0 -6 -21 -50 -48 -98 -68 -124 -119 -240 -159 -362 -34 -101 -35 -107 -20
-142 19 -44 58 -72 103 -72 59 0 82 28 125 149 43 122 133 315 147 315 5 0 31
-24 57 -52 429 -468 1011 -610 1531 -373 221 101 487 337 639 568 46 69 47 63
-58 203 -98 130 -281 306 -405 388 -268 179 -571 248 -872 201z m435 -250
c168 -48 326 -137 470 -265 82 -72 195 -198 195 -216 0 -30 -197 -224 -309
-304 -377 -270 -820 -276 -1206 -17 -144 97 -335 283 -335 327 0 26 179 205
278 278 146 108 349 197 508 222 105 16 298 5 399 -25z"/>
<path d="M1894 1891 c-29 -18 -54 -64 -54 -98 0 -29 31 -79 59 -96 110 -65
228 79 143 174 -36 41 -102 50 -148 20z"/>
</g>
</svg>
